<svg width="838" height="1394" xmlns="http://www.w3.org/2000/svg" xml:space="preserve">

 <g>
  <title>Layer 1</title>
  <g id="svg_3">
   <path id="svg_1" fill="#f6921e" d="m420,1316.63353l49,-79l-99,0l50,79m-199,-329l-3,9c26,43 56,84 79,128c20,40 53,56 92,57c36,1 72,-6 108,-11c8,-1 17,-5 21,-11l104,-163l-2,-9a412,412 0 0 1 -399,0m78,-27l3,-16l0,-384c0,-7 -3,-16 -7,-19l-116,-61l-3,8l0,415c0,6 5,16 11,18c36,14 73,26 112,39m365,-482c-37,19 -69,37 -102,53c-18,8 -25,19 -25,39l1,360l0,31l100,-34c21,-5 28,-15 28,-38l-1,-381l-1,-30m-543,208l0,-239c0,-40 17,-50 52,-32c52,27 103,55 156,81c21,11 28,25 28,48l-1,407c-1,24 9,33 30,33l71,0c20,-1 28,-10 28,-31l-1,-407c-1,-25 7,-40 30,-52c52,-25 102,-53 153,-79c34,-17 52,-7 52,30l0,481c0,12 -6,27 -13,38c-84,135 -170,269 -255,403c-22,35 -41,35 -63,0c-85,-134 -170,-267 -254,-402c-7,-12 -12,-28 -12,-43l-1,-236"/>
   <path id="svg_2" fill="#2e3191" d="m90,227.63353l12,8l303,156c9,5 25,2 34,-3c98,-49 194,-99 291,-149l17,-11l-3,-6l-314,-163c-7,-3 -18,-1 -25,3c-101,51 -202,104 -302,156l-13,9m-36,45l0,232c0,18 -7,32 -26,33s-28,-12 -28,-30l1,-278c0,-10 10,-24 19,-29c126,-67 253,-132 380,-197c11,-5 30,-5 41,1l375,194c10,6 23,19 22,27c-1,11 -12,25 -23,30c-124,65 -248,130 -373,193c-12,6 -34,5 -48,-1c-103,-52 -205,-106 -307,-159l-33,-16"/>
  </g>
 </g>
</svg>